<mxfile host="app.diagrams.net" modified="2024-02-04T16:27:36.221Z" agent="Mozilla/5.0 (Macintosh; Intel Mac OS X 10_15_7) AppleWebKit/537.36 (KHTML, like Gecko) Chrome/120.0.0.0 Safari/537.36" etag="4jRaFhIWJCakRn_Ev8cH" version="23.1.1" type="gitlab">
  <diagram name="Page-1" id="03018318-947c-dd8e-b7a3-06fadd420f32">
    <mxGraphModel dx="1242" dy="819" grid="1" gridSize="10" guides="1" tooltips="1" connect="1" arrows="1" fold="1" page="1" pageScale="1" pageWidth="1100" pageHeight="850" background="none" math="0" shadow="0">
      <root>
        <mxCell id="0" />
        <mxCell id="1" parent="0" />
        <mxCell id="677b7b8949515195-1" value="" style="whiteSpace=wrap;html=1;rounded=0;shadow=0;labelBackgroundColor=none;strokeColor=#000000;strokeWidth=1;fillColor=none;fontFamily=Verdana;fontSize=12;fontColor=#000000;align=center;comic=1;" parent="1" vertex="1">
          <mxGeometry x="20" y="20" width="1060" height="810" as="geometry" />
        </mxCell>
        <mxCell id="677b7b8949515195-9" value="" style="line;strokeWidth=1;html=1;rounded=0;shadow=0;labelBackgroundColor=none;fillColor=none;fontFamily=Verdana;fontSize=14;fontColor=#000000;align=center;comic=1;" parent="1" vertex="1">
          <mxGeometry x="20" y="140" width="1060" height="10" as="geometry" />
        </mxCell>
        <mxCell id="w6EWbj3xSbZKIu15fxQG-1" value="VegeFacts" style="whiteSpace=wrap;html=1;rounded=0;shadow=0;labelBackgroundColor=none;strokeWidth=1;fontFamily=Verdana;fontSize=28;align=center;comic=1;" vertex="1" parent="1">
          <mxGeometry x="120" y="60" width="190" height="50" as="geometry" />
        </mxCell>
        <mxCell id="w6EWbj3xSbZKIu15fxQG-2" value="Home" style="text;html=1;points=[];align=left;verticalAlign=top;spacingTop=-4;fontSize=14;fontFamily=Verdana" vertex="1" parent="1">
          <mxGeometry x="550" y="75" width="60" height="20" as="geometry" />
        </mxCell>
        <mxCell id="w6EWbj3xSbZKIu15fxQG-3" value="Predict" style="text;html=1;points=[];align=left;verticalAlign=top;spacingTop=-4;fontSize=14;fontFamily=Verdana" vertex="1" parent="1">
          <mxGeometry x="620" y="75" width="60" height="20" as="geometry" />
        </mxCell>
        <mxCell id="w6EWbj3xSbZKIu15fxQG-4" value="Veges!" style="text;html=1;points=[];align=left;verticalAlign=top;spacingTop=-4;fontSize=14;fontFamily=Verdana" vertex="1" parent="1">
          <mxGeometry x="700" y="75" width="60" height="20" as="geometry" />
        </mxCell>
        <mxCell id="w6EWbj3xSbZKIu15fxQG-5" value="History" style="text;html=1;points=[];align=left;verticalAlign=top;spacingTop=-4;fontSize=14;fontFamily=Verdana" vertex="1" parent="1">
          <mxGeometry x="770" y="75" width="60" height="20" as="geometry" />
        </mxCell>
        <mxCell id="w6EWbj3xSbZKIu15fxQG-6" value="Profile" style="text;html=1;points=[];align=left;verticalAlign=top;spacingTop=-4;fontSize=14;fontFamily=Verdana" vertex="1" parent="1">
          <mxGeometry x="850" y="75" width="60" height="20" as="geometry" />
        </mxCell>
        <mxCell id="w6EWbj3xSbZKIu15fxQG-7" value="Login/Signup" style="text;html=1;points=[];align=left;verticalAlign=top;spacingTop=-4;fontSize=14;fontFamily=Verdana" vertex="1" parent="1">
          <mxGeometry x="920" y="75" width="60" height="20" as="geometry" />
        </mxCell>
        <mxCell id="w6EWbj3xSbZKIu15fxQG-8" value="&lt;font style=&quot;font-size: 24px;&quot;&gt;Your Tomato History&lt;/font&gt;" style="whiteSpace=wrap;html=1;rounded=0;shadow=0;labelBackgroundColor=none;strokeWidth=1;fillColor=none;fontFamily=Verdana;fontSize=12;align=center;comic=1;" vertex="1" parent="1">
          <mxGeometry x="30" y="160" width="1020" height="50" as="geometry" />
        </mxCell>
        <mxCell id="w6EWbj3xSbZKIu15fxQG-9" value="" style="shape=table;startSize=0;container=1;collapsible=0;childLayout=tableLayout;fontSize=16;" vertex="1" parent="1">
          <mxGeometry x="360" y="390" width="370" height="120" as="geometry" />
        </mxCell>
        <mxCell id="w6EWbj3xSbZKIu15fxQG-10" value="" style="shape=tableRow;horizontal=0;startSize=0;swimlaneHead=0;swimlaneBody=0;strokeColor=inherit;top=0;left=0;bottom=0;right=0;collapsible=0;dropTarget=0;fillColor=none;points=[[0,0.5],[1,0.5]];portConstraint=eastwest;fontSize=16;" vertex="1" parent="w6EWbj3xSbZKIu15fxQG-9">
          <mxGeometry width="370" height="40" as="geometry" />
        </mxCell>
        <mxCell id="w6EWbj3xSbZKIu15fxQG-11" value="Path" style="shape=partialRectangle;html=1;whiteSpace=wrap;connectable=0;strokeColor=inherit;overflow=hidden;fillColor=none;top=0;left=0;bottom=0;right=0;pointerEvents=1;fontSize=16;" vertex="1" parent="w6EWbj3xSbZKIu15fxQG-10">
          <mxGeometry width="123" height="40" as="geometry">
            <mxRectangle width="123" height="40" as="alternateBounds" />
          </mxGeometry>
        </mxCell>
        <mxCell id="w6EWbj3xSbZKIu15fxQG-12" value="Comment" style="shape=partialRectangle;html=1;whiteSpace=wrap;connectable=0;strokeColor=inherit;overflow=hidden;fillColor=none;top=0;left=0;bottom=0;right=0;pointerEvents=1;fontSize=16;" vertex="1" parent="w6EWbj3xSbZKIu15fxQG-10">
          <mxGeometry x="123" width="107" height="40" as="geometry">
            <mxRectangle width="107" height="40" as="alternateBounds" />
          </mxGeometry>
        </mxCell>
        <mxCell id="w6EWbj3xSbZKIu15fxQG-13" value="Tommy&#39;s Guess" style="shape=partialRectangle;html=1;whiteSpace=wrap;connectable=0;strokeColor=inherit;overflow=hidden;fillColor=none;top=0;left=0;bottom=0;right=0;pointerEvents=1;fontSize=16;" vertex="1" parent="w6EWbj3xSbZKIu15fxQG-10">
          <mxGeometry x="230" width="140" height="40" as="geometry">
            <mxRectangle width="140" height="40" as="alternateBounds" />
          </mxGeometry>
        </mxCell>
        <mxCell id="w6EWbj3xSbZKIu15fxQG-14" value="" style="shape=tableRow;horizontal=0;startSize=0;swimlaneHead=0;swimlaneBody=0;strokeColor=inherit;top=0;left=0;bottom=0;right=0;collapsible=0;dropTarget=0;fillColor=none;points=[[0,0.5],[1,0.5]];portConstraint=eastwest;fontSize=16;" vertex="1" parent="w6EWbj3xSbZKIu15fxQG-9">
          <mxGeometry y="40" width="370" height="40" as="geometry" />
        </mxCell>
        <mxCell id="w6EWbj3xSbZKIu15fxQG-15" value="" style="shape=partialRectangle;html=1;whiteSpace=wrap;connectable=0;strokeColor=inherit;overflow=hidden;fillColor=none;top=0;left=0;bottom=0;right=0;pointerEvents=1;fontSize=16;" vertex="1" parent="w6EWbj3xSbZKIu15fxQG-14">
          <mxGeometry width="123" height="40" as="geometry">
            <mxRectangle width="123" height="40" as="alternateBounds" />
          </mxGeometry>
        </mxCell>
        <mxCell id="w6EWbj3xSbZKIu15fxQG-16" value="" style="shape=partialRectangle;html=1;whiteSpace=wrap;connectable=0;strokeColor=inherit;overflow=hidden;fillColor=none;top=0;left=0;bottom=0;right=0;pointerEvents=1;fontSize=16;" vertex="1" parent="w6EWbj3xSbZKIu15fxQG-14">
          <mxGeometry x="123" width="107" height="40" as="geometry">
            <mxRectangle width="107" height="40" as="alternateBounds" />
          </mxGeometry>
        </mxCell>
        <mxCell id="w6EWbj3xSbZKIu15fxQG-17" value="" style="shape=partialRectangle;html=1;whiteSpace=wrap;connectable=0;strokeColor=inherit;overflow=hidden;fillColor=none;top=0;left=0;bottom=0;right=0;pointerEvents=1;fontSize=16;" vertex="1" parent="w6EWbj3xSbZKIu15fxQG-14">
          <mxGeometry x="230" width="140" height="40" as="geometry">
            <mxRectangle width="140" height="40" as="alternateBounds" />
          </mxGeometry>
        </mxCell>
        <mxCell id="w6EWbj3xSbZKIu15fxQG-18" value="" style="shape=tableRow;horizontal=0;startSize=0;swimlaneHead=0;swimlaneBody=0;strokeColor=inherit;top=0;left=0;bottom=0;right=0;collapsible=0;dropTarget=0;fillColor=none;points=[[0,0.5],[1,0.5]];portConstraint=eastwest;fontSize=16;" vertex="1" parent="w6EWbj3xSbZKIu15fxQG-9">
          <mxGeometry y="80" width="370" height="40" as="geometry" />
        </mxCell>
        <mxCell id="w6EWbj3xSbZKIu15fxQG-19" value="" style="shape=partialRectangle;html=1;whiteSpace=wrap;connectable=0;strokeColor=inherit;overflow=hidden;fillColor=none;top=0;left=0;bottom=0;right=0;pointerEvents=1;fontSize=16;" vertex="1" parent="w6EWbj3xSbZKIu15fxQG-18">
          <mxGeometry width="123" height="40" as="geometry">
            <mxRectangle width="123" height="40" as="alternateBounds" />
          </mxGeometry>
        </mxCell>
        <mxCell id="w6EWbj3xSbZKIu15fxQG-20" value="" style="shape=partialRectangle;html=1;whiteSpace=wrap;connectable=0;strokeColor=inherit;overflow=hidden;fillColor=none;top=0;left=0;bottom=0;right=0;pointerEvents=1;fontSize=16;" vertex="1" parent="w6EWbj3xSbZKIu15fxQG-18">
          <mxGeometry x="123" width="107" height="40" as="geometry">
            <mxRectangle width="107" height="40" as="alternateBounds" />
          </mxGeometry>
        </mxCell>
        <mxCell id="w6EWbj3xSbZKIu15fxQG-21" value="" style="shape=partialRectangle;html=1;whiteSpace=wrap;connectable=0;strokeColor=inherit;overflow=hidden;fillColor=none;top=0;left=0;bottom=0;right=0;pointerEvents=1;fontSize=16;" vertex="1" parent="w6EWbj3xSbZKIu15fxQG-18">
          <mxGeometry x="230" width="140" height="40" as="geometry">
            <mxRectangle width="140" height="40" as="alternateBounds" />
          </mxGeometry>
        </mxCell>
        <mxCell id="w6EWbj3xSbZKIu15fxQG-48" value="" style="shape=table;startSize=0;container=1;collapsible=0;childLayout=tableLayout;fontSize=16;" vertex="1" parent="1">
          <mxGeometry x="730" y="390" width="230" height="120" as="geometry" />
        </mxCell>
        <mxCell id="w6EWbj3xSbZKIu15fxQG-49" value="" style="shape=tableRow;horizontal=0;startSize=0;swimlaneHead=0;swimlaneBody=0;strokeColor=inherit;top=0;left=0;bottom=0;right=0;collapsible=0;dropTarget=0;fillColor=none;points=[[0,0.5],[1,0.5]];portConstraint=eastwest;fontSize=16;" vertex="1" parent="w6EWbj3xSbZKIu15fxQG-48">
          <mxGeometry width="230" height="41" as="geometry" />
        </mxCell>
        <mxCell id="w6EWbj3xSbZKIu15fxQG-50" value="Percentage" style="shape=partialRectangle;html=1;whiteSpace=wrap;connectable=0;strokeColor=inherit;overflow=hidden;fillColor=none;top=0;left=0;bottom=0;right=0;pointerEvents=1;fontSize=16;" vertex="1" parent="w6EWbj3xSbZKIu15fxQG-49">
          <mxGeometry width="115" height="41" as="geometry">
            <mxRectangle width="115" height="41" as="alternateBounds" />
          </mxGeometry>
        </mxCell>
        <mxCell id="w6EWbj3xSbZKIu15fxQG-51" value="Remove?" style="shape=partialRectangle;html=1;whiteSpace=wrap;connectable=0;strokeColor=inherit;overflow=hidden;fillColor=none;top=0;left=0;bottom=0;right=0;pointerEvents=1;fontSize=16;" vertex="1" parent="w6EWbj3xSbZKIu15fxQG-49">
          <mxGeometry x="115" width="115" height="41" as="geometry">
            <mxRectangle width="115" height="41" as="alternateBounds" />
          </mxGeometry>
        </mxCell>
        <mxCell id="w6EWbj3xSbZKIu15fxQG-52" value="" style="shape=tableRow;horizontal=0;startSize=0;swimlaneHead=0;swimlaneBody=0;strokeColor=inherit;top=0;left=0;bottom=0;right=0;collapsible=0;dropTarget=0;fillColor=none;points=[[0,0.5],[1,0.5]];portConstraint=eastwest;fontSize=16;" vertex="1" parent="w6EWbj3xSbZKIu15fxQG-48">
          <mxGeometry y="41" width="230" height="41" as="geometry" />
        </mxCell>
        <mxCell id="w6EWbj3xSbZKIu15fxQG-53" value="" style="shape=partialRectangle;html=1;whiteSpace=wrap;connectable=0;strokeColor=inherit;overflow=hidden;fillColor=none;top=0;left=0;bottom=0;right=0;pointerEvents=1;fontSize=16;" vertex="1" parent="w6EWbj3xSbZKIu15fxQG-52">
          <mxGeometry width="115" height="41" as="geometry">
            <mxRectangle width="115" height="41" as="alternateBounds" />
          </mxGeometry>
        </mxCell>
        <mxCell id="w6EWbj3xSbZKIu15fxQG-54" value="" style="shape=partialRectangle;html=1;whiteSpace=wrap;connectable=0;strokeColor=inherit;overflow=hidden;fillColor=none;top=0;left=0;bottom=0;right=0;pointerEvents=1;fontSize=16;" vertex="1" parent="w6EWbj3xSbZKIu15fxQG-52">
          <mxGeometry x="115" width="115" height="41" as="geometry">
            <mxRectangle width="115" height="41" as="alternateBounds" />
          </mxGeometry>
        </mxCell>
        <mxCell id="w6EWbj3xSbZKIu15fxQG-55" value="" style="shape=tableRow;horizontal=0;startSize=0;swimlaneHead=0;swimlaneBody=0;strokeColor=inherit;top=0;left=0;bottom=0;right=0;collapsible=0;dropTarget=0;fillColor=none;points=[[0,0.5],[1,0.5]];portConstraint=eastwest;fontSize=16;" vertex="1" parent="w6EWbj3xSbZKIu15fxQG-48">
          <mxGeometry y="82" width="230" height="38" as="geometry" />
        </mxCell>
        <mxCell id="w6EWbj3xSbZKIu15fxQG-56" value="" style="shape=partialRectangle;html=1;whiteSpace=wrap;connectable=0;strokeColor=inherit;overflow=hidden;fillColor=none;top=0;left=0;bottom=0;right=0;pointerEvents=1;fontSize=16;" vertex="1" parent="w6EWbj3xSbZKIu15fxQG-55">
          <mxGeometry width="115" height="38" as="geometry">
            <mxRectangle width="115" height="38" as="alternateBounds" />
          </mxGeometry>
        </mxCell>
        <mxCell id="w6EWbj3xSbZKIu15fxQG-57" value="" style="shape=partialRectangle;html=1;whiteSpace=wrap;connectable=0;strokeColor=inherit;overflow=hidden;fillColor=none;top=0;left=0;bottom=0;right=0;pointerEvents=1;fontSize=16;" vertex="1" parent="w6EWbj3xSbZKIu15fxQG-55">
          <mxGeometry x="115" width="115" height="38" as="geometry">
            <mxRectangle width="115" height="38" as="alternateBounds" />
          </mxGeometry>
        </mxCell>
        <mxCell id="w6EWbj3xSbZKIu15fxQG-58" value="" style="shape=table;startSize=0;container=1;collapsible=0;childLayout=tableLayout;fontSize=16;" vertex="1" parent="1">
          <mxGeometry x="110" y="390" width="250" height="120" as="geometry" />
        </mxCell>
        <mxCell id="w6EWbj3xSbZKIu15fxQG-59" value="" style="shape=tableRow;horizontal=0;startSize=0;swimlaneHead=0;swimlaneBody=0;strokeColor=inherit;top=0;left=0;bottom=0;right=0;collapsible=0;dropTarget=0;fillColor=none;points=[[0,0.5],[1,0.5]];portConstraint=eastwest;fontSize=16;" vertex="1" parent="w6EWbj3xSbZKIu15fxQG-58">
          <mxGeometry width="250" height="41" as="geometry" />
        </mxCell>
        <mxCell id="w6EWbj3xSbZKIu15fxQG-60" value="Date" style="shape=partialRectangle;html=1;whiteSpace=wrap;connectable=0;strokeColor=inherit;overflow=hidden;fillColor=none;top=0;left=0;bottom=0;right=0;pointerEvents=1;fontSize=16;" vertex="1" parent="w6EWbj3xSbZKIu15fxQG-59">
          <mxGeometry width="125" height="41" as="geometry">
            <mxRectangle width="125" height="41" as="alternateBounds" />
          </mxGeometry>
        </mxCell>
        <mxCell id="w6EWbj3xSbZKIu15fxQG-61" value="Img" style="shape=partialRectangle;html=1;whiteSpace=wrap;connectable=0;strokeColor=inherit;overflow=hidden;fillColor=none;top=0;left=0;bottom=0;right=0;pointerEvents=1;fontSize=16;" vertex="1" parent="w6EWbj3xSbZKIu15fxQG-59">
          <mxGeometry x="125" width="125" height="41" as="geometry">
            <mxRectangle width="125" height="41" as="alternateBounds" />
          </mxGeometry>
        </mxCell>
        <mxCell id="w6EWbj3xSbZKIu15fxQG-62" value="" style="shape=tableRow;horizontal=0;startSize=0;swimlaneHead=0;swimlaneBody=0;strokeColor=inherit;top=0;left=0;bottom=0;right=0;collapsible=0;dropTarget=0;fillColor=none;points=[[0,0.5],[1,0.5]];portConstraint=eastwest;fontSize=16;" vertex="1" parent="w6EWbj3xSbZKIu15fxQG-58">
          <mxGeometry y="41" width="250" height="41" as="geometry" />
        </mxCell>
        <mxCell id="w6EWbj3xSbZKIu15fxQG-63" value="" style="shape=partialRectangle;html=1;whiteSpace=wrap;connectable=0;strokeColor=inherit;overflow=hidden;fillColor=none;top=0;left=0;bottom=0;right=0;pointerEvents=1;fontSize=16;" vertex="1" parent="w6EWbj3xSbZKIu15fxQG-62">
          <mxGeometry width="125" height="41" as="geometry">
            <mxRectangle width="125" height="41" as="alternateBounds" />
          </mxGeometry>
        </mxCell>
        <mxCell id="w6EWbj3xSbZKIu15fxQG-64" value="" style="shape=partialRectangle;html=1;whiteSpace=wrap;connectable=0;strokeColor=inherit;overflow=hidden;fillColor=none;top=0;left=0;bottom=0;right=0;pointerEvents=1;fontSize=16;" vertex="1" parent="w6EWbj3xSbZKIu15fxQG-62">
          <mxGeometry x="125" width="125" height="41" as="geometry">
            <mxRectangle width="125" height="41" as="alternateBounds" />
          </mxGeometry>
        </mxCell>
        <mxCell id="w6EWbj3xSbZKIu15fxQG-65" value="" style="shape=tableRow;horizontal=0;startSize=0;swimlaneHead=0;swimlaneBody=0;strokeColor=inherit;top=0;left=0;bottom=0;right=0;collapsible=0;dropTarget=0;fillColor=none;points=[[0,0.5],[1,0.5]];portConstraint=eastwest;fontSize=16;" vertex="1" parent="w6EWbj3xSbZKIu15fxQG-58">
          <mxGeometry y="82" width="250" height="38" as="geometry" />
        </mxCell>
        <mxCell id="w6EWbj3xSbZKIu15fxQG-66" value="" style="shape=partialRectangle;html=1;whiteSpace=wrap;connectable=0;strokeColor=inherit;overflow=hidden;fillColor=none;top=0;left=0;bottom=0;right=0;pointerEvents=1;fontSize=16;" vertex="1" parent="w6EWbj3xSbZKIu15fxQG-65">
          <mxGeometry width="125" height="38" as="geometry">
            <mxRectangle width="125" height="38" as="alternateBounds" />
          </mxGeometry>
        </mxCell>
        <mxCell id="w6EWbj3xSbZKIu15fxQG-67" value="" style="shape=partialRectangle;html=1;whiteSpace=wrap;connectable=0;strokeColor=inherit;overflow=hidden;fillColor=none;top=0;left=0;bottom=0;right=0;pointerEvents=1;fontSize=16;" vertex="1" parent="w6EWbj3xSbZKIu15fxQG-65">
          <mxGeometry x="125" width="125" height="38" as="geometry">
            <mxRectangle width="125" height="38" as="alternateBounds" />
          </mxGeometry>
        </mxCell>
        <mxCell id="w6EWbj3xSbZKIu15fxQG-68" value="" style="shape=table;startSize=0;container=1;collapsible=0;childLayout=tableLayout;fontSize=16;" vertex="1" parent="1">
          <mxGeometry x="360" y="510" width="370" height="120" as="geometry" />
        </mxCell>
        <mxCell id="w6EWbj3xSbZKIu15fxQG-69" value="" style="shape=tableRow;horizontal=0;startSize=0;swimlaneHead=0;swimlaneBody=0;strokeColor=inherit;top=0;left=0;bottom=0;right=0;collapsible=0;dropTarget=0;fillColor=none;points=[[0,0.5],[1,0.5]];portConstraint=eastwest;fontSize=16;" vertex="1" parent="w6EWbj3xSbZKIu15fxQG-68">
          <mxGeometry width="370" height="40" as="geometry" />
        </mxCell>
        <mxCell id="w6EWbj3xSbZKIu15fxQG-70" value="" style="shape=partialRectangle;html=1;whiteSpace=wrap;connectable=0;strokeColor=inherit;overflow=hidden;fillColor=none;top=0;left=0;bottom=0;right=0;pointerEvents=1;fontSize=16;" vertex="1" parent="w6EWbj3xSbZKIu15fxQG-69">
          <mxGeometry width="123" height="40" as="geometry">
            <mxRectangle width="123" height="40" as="alternateBounds" />
          </mxGeometry>
        </mxCell>
        <mxCell id="w6EWbj3xSbZKIu15fxQG-71" value="" style="shape=partialRectangle;html=1;whiteSpace=wrap;connectable=0;strokeColor=inherit;overflow=hidden;fillColor=none;top=0;left=0;bottom=0;right=0;pointerEvents=1;fontSize=16;" vertex="1" parent="w6EWbj3xSbZKIu15fxQG-69">
          <mxGeometry x="123" width="107" height="40" as="geometry">
            <mxRectangle width="107" height="40" as="alternateBounds" />
          </mxGeometry>
        </mxCell>
        <mxCell id="w6EWbj3xSbZKIu15fxQG-72" value="" style="shape=partialRectangle;html=1;whiteSpace=wrap;connectable=0;strokeColor=inherit;overflow=hidden;fillColor=none;top=0;left=0;bottom=0;right=0;pointerEvents=1;fontSize=16;" vertex="1" parent="w6EWbj3xSbZKIu15fxQG-69">
          <mxGeometry x="230" width="140" height="40" as="geometry">
            <mxRectangle width="140" height="40" as="alternateBounds" />
          </mxGeometry>
        </mxCell>
        <mxCell id="w6EWbj3xSbZKIu15fxQG-73" value="" style="shape=tableRow;horizontal=0;startSize=0;swimlaneHead=0;swimlaneBody=0;strokeColor=inherit;top=0;left=0;bottom=0;right=0;collapsible=0;dropTarget=0;fillColor=none;points=[[0,0.5],[1,0.5]];portConstraint=eastwest;fontSize=16;" vertex="1" parent="w6EWbj3xSbZKIu15fxQG-68">
          <mxGeometry y="40" width="370" height="40" as="geometry" />
        </mxCell>
        <mxCell id="w6EWbj3xSbZKIu15fxQG-74" value="" style="shape=partialRectangle;html=1;whiteSpace=wrap;connectable=0;strokeColor=inherit;overflow=hidden;fillColor=none;top=0;left=0;bottom=0;right=0;pointerEvents=1;fontSize=16;" vertex="1" parent="w6EWbj3xSbZKIu15fxQG-73">
          <mxGeometry width="123" height="40" as="geometry">
            <mxRectangle width="123" height="40" as="alternateBounds" />
          </mxGeometry>
        </mxCell>
        <mxCell id="w6EWbj3xSbZKIu15fxQG-75" value="" style="shape=partialRectangle;html=1;whiteSpace=wrap;connectable=0;strokeColor=inherit;overflow=hidden;fillColor=none;top=0;left=0;bottom=0;right=0;pointerEvents=1;fontSize=16;" vertex="1" parent="w6EWbj3xSbZKIu15fxQG-73">
          <mxGeometry x="123" width="107" height="40" as="geometry">
            <mxRectangle width="107" height="40" as="alternateBounds" />
          </mxGeometry>
        </mxCell>
        <mxCell id="w6EWbj3xSbZKIu15fxQG-76" value="" style="shape=partialRectangle;html=1;whiteSpace=wrap;connectable=0;strokeColor=inherit;overflow=hidden;fillColor=none;top=0;left=0;bottom=0;right=0;pointerEvents=1;fontSize=16;" vertex="1" parent="w6EWbj3xSbZKIu15fxQG-73">
          <mxGeometry x="230" width="140" height="40" as="geometry">
            <mxRectangle width="140" height="40" as="alternateBounds" />
          </mxGeometry>
        </mxCell>
        <mxCell id="w6EWbj3xSbZKIu15fxQG-77" value="" style="shape=tableRow;horizontal=0;startSize=0;swimlaneHead=0;swimlaneBody=0;strokeColor=inherit;top=0;left=0;bottom=0;right=0;collapsible=0;dropTarget=0;fillColor=none;points=[[0,0.5],[1,0.5]];portConstraint=eastwest;fontSize=16;" vertex="1" parent="w6EWbj3xSbZKIu15fxQG-68">
          <mxGeometry y="80" width="370" height="40" as="geometry" />
        </mxCell>
        <mxCell id="w6EWbj3xSbZKIu15fxQG-78" value="" style="shape=partialRectangle;html=1;whiteSpace=wrap;connectable=0;strokeColor=inherit;overflow=hidden;fillColor=none;top=0;left=0;bottom=0;right=0;pointerEvents=1;fontSize=16;" vertex="1" parent="w6EWbj3xSbZKIu15fxQG-77">
          <mxGeometry width="123" height="40" as="geometry">
            <mxRectangle width="123" height="40" as="alternateBounds" />
          </mxGeometry>
        </mxCell>
        <mxCell id="w6EWbj3xSbZKIu15fxQG-79" value="" style="shape=partialRectangle;html=1;whiteSpace=wrap;connectable=0;strokeColor=inherit;overflow=hidden;fillColor=none;top=0;left=0;bottom=0;right=0;pointerEvents=1;fontSize=16;" vertex="1" parent="w6EWbj3xSbZKIu15fxQG-77">
          <mxGeometry x="123" width="107" height="40" as="geometry">
            <mxRectangle width="107" height="40" as="alternateBounds" />
          </mxGeometry>
        </mxCell>
        <mxCell id="w6EWbj3xSbZKIu15fxQG-80" value="" style="shape=partialRectangle;html=1;whiteSpace=wrap;connectable=0;strokeColor=inherit;overflow=hidden;fillColor=none;top=0;left=0;bottom=0;right=0;pointerEvents=1;fontSize=16;" vertex="1" parent="w6EWbj3xSbZKIu15fxQG-77">
          <mxGeometry x="230" width="140" height="40" as="geometry">
            <mxRectangle width="140" height="40" as="alternateBounds" />
          </mxGeometry>
        </mxCell>
        <mxCell id="w6EWbj3xSbZKIu15fxQG-81" value="" style="shape=table;startSize=0;container=1;collapsible=0;childLayout=tableLayout;fontSize=16;" vertex="1" parent="1">
          <mxGeometry x="730" y="510" width="230" height="120" as="geometry" />
        </mxCell>
        <mxCell id="w6EWbj3xSbZKIu15fxQG-82" value="" style="shape=tableRow;horizontal=0;startSize=0;swimlaneHead=0;swimlaneBody=0;strokeColor=inherit;top=0;left=0;bottom=0;right=0;collapsible=0;dropTarget=0;fillColor=none;points=[[0,0.5],[1,0.5]];portConstraint=eastwest;fontSize=16;" vertex="1" parent="w6EWbj3xSbZKIu15fxQG-81">
          <mxGeometry width="230" height="41" as="geometry" />
        </mxCell>
        <mxCell id="w6EWbj3xSbZKIu15fxQG-83" value="" style="shape=partialRectangle;html=1;whiteSpace=wrap;connectable=0;strokeColor=inherit;overflow=hidden;fillColor=none;top=0;left=0;bottom=0;right=0;pointerEvents=1;fontSize=16;" vertex="1" parent="w6EWbj3xSbZKIu15fxQG-82">
          <mxGeometry width="115" height="41" as="geometry">
            <mxRectangle width="115" height="41" as="alternateBounds" />
          </mxGeometry>
        </mxCell>
        <mxCell id="w6EWbj3xSbZKIu15fxQG-84" value="" style="shape=partialRectangle;html=1;whiteSpace=wrap;connectable=0;strokeColor=inherit;overflow=hidden;fillColor=none;top=0;left=0;bottom=0;right=0;pointerEvents=1;fontSize=16;" vertex="1" parent="w6EWbj3xSbZKIu15fxQG-82">
          <mxGeometry x="115" width="115" height="41" as="geometry">
            <mxRectangle width="115" height="41" as="alternateBounds" />
          </mxGeometry>
        </mxCell>
        <mxCell id="w6EWbj3xSbZKIu15fxQG-85" value="" style="shape=tableRow;horizontal=0;startSize=0;swimlaneHead=0;swimlaneBody=0;strokeColor=inherit;top=0;left=0;bottom=0;right=0;collapsible=0;dropTarget=0;fillColor=none;points=[[0,0.5],[1,0.5]];portConstraint=eastwest;fontSize=16;" vertex="1" parent="w6EWbj3xSbZKIu15fxQG-81">
          <mxGeometry y="41" width="230" height="41" as="geometry" />
        </mxCell>
        <mxCell id="w6EWbj3xSbZKIu15fxQG-86" value="" style="shape=partialRectangle;html=1;whiteSpace=wrap;connectable=0;strokeColor=inherit;overflow=hidden;fillColor=none;top=0;left=0;bottom=0;right=0;pointerEvents=1;fontSize=16;" vertex="1" parent="w6EWbj3xSbZKIu15fxQG-85">
          <mxGeometry width="115" height="41" as="geometry">
            <mxRectangle width="115" height="41" as="alternateBounds" />
          </mxGeometry>
        </mxCell>
        <mxCell id="w6EWbj3xSbZKIu15fxQG-87" value="" style="shape=partialRectangle;html=1;whiteSpace=wrap;connectable=0;strokeColor=inherit;overflow=hidden;fillColor=none;top=0;left=0;bottom=0;right=0;pointerEvents=1;fontSize=16;" vertex="1" parent="w6EWbj3xSbZKIu15fxQG-85">
          <mxGeometry x="115" width="115" height="41" as="geometry">
            <mxRectangle width="115" height="41" as="alternateBounds" />
          </mxGeometry>
        </mxCell>
        <mxCell id="w6EWbj3xSbZKIu15fxQG-88" value="" style="shape=tableRow;horizontal=0;startSize=0;swimlaneHead=0;swimlaneBody=0;strokeColor=inherit;top=0;left=0;bottom=0;right=0;collapsible=0;dropTarget=0;fillColor=none;points=[[0,0.5],[1,0.5]];portConstraint=eastwest;fontSize=16;" vertex="1" parent="w6EWbj3xSbZKIu15fxQG-81">
          <mxGeometry y="82" width="230" height="38" as="geometry" />
        </mxCell>
        <mxCell id="w6EWbj3xSbZKIu15fxQG-89" value="" style="shape=partialRectangle;html=1;whiteSpace=wrap;connectable=0;strokeColor=inherit;overflow=hidden;fillColor=none;top=0;left=0;bottom=0;right=0;pointerEvents=1;fontSize=16;" vertex="1" parent="w6EWbj3xSbZKIu15fxQG-88">
          <mxGeometry width="115" height="38" as="geometry">
            <mxRectangle width="115" height="38" as="alternateBounds" />
          </mxGeometry>
        </mxCell>
        <mxCell id="w6EWbj3xSbZKIu15fxQG-90" value="" style="shape=partialRectangle;html=1;whiteSpace=wrap;connectable=0;strokeColor=inherit;overflow=hidden;fillColor=none;top=0;left=0;bottom=0;right=0;pointerEvents=1;fontSize=16;" vertex="1" parent="w6EWbj3xSbZKIu15fxQG-88">
          <mxGeometry x="115" width="115" height="38" as="geometry">
            <mxRectangle width="115" height="38" as="alternateBounds" />
          </mxGeometry>
        </mxCell>
        <mxCell id="w6EWbj3xSbZKIu15fxQG-91" value="" style="shape=table;startSize=0;container=1;collapsible=0;childLayout=tableLayout;fontSize=16;" vertex="1" parent="1">
          <mxGeometry x="110" y="510" width="250" height="120" as="geometry" />
        </mxCell>
        <mxCell id="w6EWbj3xSbZKIu15fxQG-92" value="" style="shape=tableRow;horizontal=0;startSize=0;swimlaneHead=0;swimlaneBody=0;strokeColor=inherit;top=0;left=0;bottom=0;right=0;collapsible=0;dropTarget=0;fillColor=none;points=[[0,0.5],[1,0.5]];portConstraint=eastwest;fontSize=16;" vertex="1" parent="w6EWbj3xSbZKIu15fxQG-91">
          <mxGeometry width="250" height="41" as="geometry" />
        </mxCell>
        <mxCell id="w6EWbj3xSbZKIu15fxQG-93" value="" style="shape=partialRectangle;html=1;whiteSpace=wrap;connectable=0;strokeColor=inherit;overflow=hidden;fillColor=none;top=0;left=0;bottom=0;right=0;pointerEvents=1;fontSize=16;" vertex="1" parent="w6EWbj3xSbZKIu15fxQG-92">
          <mxGeometry width="125" height="41" as="geometry">
            <mxRectangle width="125" height="41" as="alternateBounds" />
          </mxGeometry>
        </mxCell>
        <mxCell id="w6EWbj3xSbZKIu15fxQG-94" value="" style="shape=partialRectangle;html=1;whiteSpace=wrap;connectable=0;strokeColor=inherit;overflow=hidden;fillColor=none;top=0;left=0;bottom=0;right=0;pointerEvents=1;fontSize=16;" vertex="1" parent="w6EWbj3xSbZKIu15fxQG-92">
          <mxGeometry x="125" width="125" height="41" as="geometry">
            <mxRectangle width="125" height="41" as="alternateBounds" />
          </mxGeometry>
        </mxCell>
        <mxCell id="w6EWbj3xSbZKIu15fxQG-95" value="" style="shape=tableRow;horizontal=0;startSize=0;swimlaneHead=0;swimlaneBody=0;strokeColor=inherit;top=0;left=0;bottom=0;right=0;collapsible=0;dropTarget=0;fillColor=none;points=[[0,0.5],[1,0.5]];portConstraint=eastwest;fontSize=16;" vertex="1" parent="w6EWbj3xSbZKIu15fxQG-91">
          <mxGeometry y="41" width="250" height="41" as="geometry" />
        </mxCell>
        <mxCell id="w6EWbj3xSbZKIu15fxQG-96" value="" style="shape=partialRectangle;html=1;whiteSpace=wrap;connectable=0;strokeColor=inherit;overflow=hidden;fillColor=none;top=0;left=0;bottom=0;right=0;pointerEvents=1;fontSize=16;" vertex="1" parent="w6EWbj3xSbZKIu15fxQG-95">
          <mxGeometry width="125" height="41" as="geometry">
            <mxRectangle width="125" height="41" as="alternateBounds" />
          </mxGeometry>
        </mxCell>
        <mxCell id="w6EWbj3xSbZKIu15fxQG-97" value="" style="shape=partialRectangle;html=1;whiteSpace=wrap;connectable=0;strokeColor=inherit;overflow=hidden;fillColor=none;top=0;left=0;bottom=0;right=0;pointerEvents=1;fontSize=16;" vertex="1" parent="w6EWbj3xSbZKIu15fxQG-95">
          <mxGeometry x="125" width="125" height="41" as="geometry">
            <mxRectangle width="125" height="41" as="alternateBounds" />
          </mxGeometry>
        </mxCell>
        <mxCell id="w6EWbj3xSbZKIu15fxQG-98" value="" style="shape=tableRow;horizontal=0;startSize=0;swimlaneHead=0;swimlaneBody=0;strokeColor=inherit;top=0;left=0;bottom=0;right=0;collapsible=0;dropTarget=0;fillColor=none;points=[[0,0.5],[1,0.5]];portConstraint=eastwest;fontSize=16;" vertex="1" parent="w6EWbj3xSbZKIu15fxQG-91">
          <mxGeometry y="82" width="250" height="38" as="geometry" />
        </mxCell>
        <mxCell id="w6EWbj3xSbZKIu15fxQG-99" value="" style="shape=partialRectangle;html=1;whiteSpace=wrap;connectable=0;strokeColor=inherit;overflow=hidden;fillColor=none;top=0;left=0;bottom=0;right=0;pointerEvents=1;fontSize=16;" vertex="1" parent="w6EWbj3xSbZKIu15fxQG-98">
          <mxGeometry width="125" height="38" as="geometry">
            <mxRectangle width="125" height="38" as="alternateBounds" />
          </mxGeometry>
        </mxCell>
        <mxCell id="w6EWbj3xSbZKIu15fxQG-100" value="" style="shape=partialRectangle;html=1;whiteSpace=wrap;connectable=0;strokeColor=inherit;overflow=hidden;fillColor=none;top=0;left=0;bottom=0;right=0;pointerEvents=1;fontSize=16;" vertex="1" parent="w6EWbj3xSbZKIu15fxQG-98">
          <mxGeometry x="125" width="125" height="38" as="geometry">
            <mxRectangle width="125" height="38" as="alternateBounds" />
          </mxGeometry>
        </mxCell>
        <mxCell id="w6EWbj3xSbZKIu15fxQG-101" value="" style="shape=table;startSize=0;container=1;collapsible=0;childLayout=tableLayout;fontSize=16;" vertex="1" parent="1">
          <mxGeometry x="360" y="630" width="370" height="120" as="geometry" />
        </mxCell>
        <mxCell id="w6EWbj3xSbZKIu15fxQG-102" value="" style="shape=tableRow;horizontal=0;startSize=0;swimlaneHead=0;swimlaneBody=0;strokeColor=inherit;top=0;left=0;bottom=0;right=0;collapsible=0;dropTarget=0;fillColor=none;points=[[0,0.5],[1,0.5]];portConstraint=eastwest;fontSize=16;" vertex="1" parent="w6EWbj3xSbZKIu15fxQG-101">
          <mxGeometry width="370" height="40" as="geometry" />
        </mxCell>
        <mxCell id="w6EWbj3xSbZKIu15fxQG-103" value="" style="shape=partialRectangle;html=1;whiteSpace=wrap;connectable=0;strokeColor=inherit;overflow=hidden;fillColor=none;top=0;left=0;bottom=0;right=0;pointerEvents=1;fontSize=16;" vertex="1" parent="w6EWbj3xSbZKIu15fxQG-102">
          <mxGeometry width="123" height="40" as="geometry">
            <mxRectangle width="123" height="40" as="alternateBounds" />
          </mxGeometry>
        </mxCell>
        <mxCell id="w6EWbj3xSbZKIu15fxQG-104" value="" style="shape=partialRectangle;html=1;whiteSpace=wrap;connectable=0;strokeColor=inherit;overflow=hidden;fillColor=none;top=0;left=0;bottom=0;right=0;pointerEvents=1;fontSize=16;" vertex="1" parent="w6EWbj3xSbZKIu15fxQG-102">
          <mxGeometry x="123" width="107" height="40" as="geometry">
            <mxRectangle width="107" height="40" as="alternateBounds" />
          </mxGeometry>
        </mxCell>
        <mxCell id="w6EWbj3xSbZKIu15fxQG-105" value="" style="shape=partialRectangle;html=1;whiteSpace=wrap;connectable=0;strokeColor=inherit;overflow=hidden;fillColor=none;top=0;left=0;bottom=0;right=0;pointerEvents=1;fontSize=16;" vertex="1" parent="w6EWbj3xSbZKIu15fxQG-102">
          <mxGeometry x="230" width="140" height="40" as="geometry">
            <mxRectangle width="140" height="40" as="alternateBounds" />
          </mxGeometry>
        </mxCell>
        <mxCell id="w6EWbj3xSbZKIu15fxQG-106" value="" style="shape=tableRow;horizontal=0;startSize=0;swimlaneHead=0;swimlaneBody=0;strokeColor=inherit;top=0;left=0;bottom=0;right=0;collapsible=0;dropTarget=0;fillColor=none;points=[[0,0.5],[1,0.5]];portConstraint=eastwest;fontSize=16;" vertex="1" parent="w6EWbj3xSbZKIu15fxQG-101">
          <mxGeometry y="40" width="370" height="40" as="geometry" />
        </mxCell>
        <mxCell id="w6EWbj3xSbZKIu15fxQG-107" value="" style="shape=partialRectangle;html=1;whiteSpace=wrap;connectable=0;strokeColor=inherit;overflow=hidden;fillColor=none;top=0;left=0;bottom=0;right=0;pointerEvents=1;fontSize=16;" vertex="1" parent="w6EWbj3xSbZKIu15fxQG-106">
          <mxGeometry width="123" height="40" as="geometry">
            <mxRectangle width="123" height="40" as="alternateBounds" />
          </mxGeometry>
        </mxCell>
        <mxCell id="w6EWbj3xSbZKIu15fxQG-108" value="" style="shape=partialRectangle;html=1;whiteSpace=wrap;connectable=0;strokeColor=inherit;overflow=hidden;fillColor=none;top=0;left=0;bottom=0;right=0;pointerEvents=1;fontSize=16;" vertex="1" parent="w6EWbj3xSbZKIu15fxQG-106">
          <mxGeometry x="123" width="107" height="40" as="geometry">
            <mxRectangle width="107" height="40" as="alternateBounds" />
          </mxGeometry>
        </mxCell>
        <mxCell id="w6EWbj3xSbZKIu15fxQG-109" value="" style="shape=partialRectangle;html=1;whiteSpace=wrap;connectable=0;strokeColor=inherit;overflow=hidden;fillColor=none;top=0;left=0;bottom=0;right=0;pointerEvents=1;fontSize=16;" vertex="1" parent="w6EWbj3xSbZKIu15fxQG-106">
          <mxGeometry x="230" width="140" height="40" as="geometry">
            <mxRectangle width="140" height="40" as="alternateBounds" />
          </mxGeometry>
        </mxCell>
        <mxCell id="w6EWbj3xSbZKIu15fxQG-110" value="" style="shape=tableRow;horizontal=0;startSize=0;swimlaneHead=0;swimlaneBody=0;strokeColor=inherit;top=0;left=0;bottom=0;right=0;collapsible=0;dropTarget=0;fillColor=none;points=[[0,0.5],[1,0.5]];portConstraint=eastwest;fontSize=16;" vertex="1" parent="w6EWbj3xSbZKIu15fxQG-101">
          <mxGeometry y="80" width="370" height="40" as="geometry" />
        </mxCell>
        <mxCell id="w6EWbj3xSbZKIu15fxQG-111" value="" style="shape=partialRectangle;html=1;whiteSpace=wrap;connectable=0;strokeColor=inherit;overflow=hidden;fillColor=none;top=0;left=0;bottom=0;right=0;pointerEvents=1;fontSize=16;" vertex="1" parent="w6EWbj3xSbZKIu15fxQG-110">
          <mxGeometry width="123" height="40" as="geometry">
            <mxRectangle width="123" height="40" as="alternateBounds" />
          </mxGeometry>
        </mxCell>
        <mxCell id="w6EWbj3xSbZKIu15fxQG-112" value="" style="shape=partialRectangle;html=1;whiteSpace=wrap;connectable=0;strokeColor=inherit;overflow=hidden;fillColor=none;top=0;left=0;bottom=0;right=0;pointerEvents=1;fontSize=16;" vertex="1" parent="w6EWbj3xSbZKIu15fxQG-110">
          <mxGeometry x="123" width="107" height="40" as="geometry">
            <mxRectangle width="107" height="40" as="alternateBounds" />
          </mxGeometry>
        </mxCell>
        <mxCell id="w6EWbj3xSbZKIu15fxQG-113" value="" style="shape=partialRectangle;html=1;whiteSpace=wrap;connectable=0;strokeColor=inherit;overflow=hidden;fillColor=none;top=0;left=0;bottom=0;right=0;pointerEvents=1;fontSize=16;" vertex="1" parent="w6EWbj3xSbZKIu15fxQG-110">
          <mxGeometry x="230" width="140" height="40" as="geometry">
            <mxRectangle width="140" height="40" as="alternateBounds" />
          </mxGeometry>
        </mxCell>
        <mxCell id="w6EWbj3xSbZKIu15fxQG-114" value="" style="shape=table;startSize=0;container=1;collapsible=0;childLayout=tableLayout;fontSize=16;" vertex="1" parent="1">
          <mxGeometry x="730" y="630" width="230" height="120" as="geometry" />
        </mxCell>
        <mxCell id="w6EWbj3xSbZKIu15fxQG-115" value="" style="shape=tableRow;horizontal=0;startSize=0;swimlaneHead=0;swimlaneBody=0;strokeColor=inherit;top=0;left=0;bottom=0;right=0;collapsible=0;dropTarget=0;fillColor=none;points=[[0,0.5],[1,0.5]];portConstraint=eastwest;fontSize=16;" vertex="1" parent="w6EWbj3xSbZKIu15fxQG-114">
          <mxGeometry width="230" height="41" as="geometry" />
        </mxCell>
        <mxCell id="w6EWbj3xSbZKIu15fxQG-116" value="" style="shape=partialRectangle;html=1;whiteSpace=wrap;connectable=0;strokeColor=inherit;overflow=hidden;fillColor=none;top=0;left=0;bottom=0;right=0;pointerEvents=1;fontSize=16;" vertex="1" parent="w6EWbj3xSbZKIu15fxQG-115">
          <mxGeometry width="115" height="41" as="geometry">
            <mxRectangle width="115" height="41" as="alternateBounds" />
          </mxGeometry>
        </mxCell>
        <mxCell id="w6EWbj3xSbZKIu15fxQG-117" value="" style="shape=partialRectangle;html=1;whiteSpace=wrap;connectable=0;strokeColor=inherit;overflow=hidden;fillColor=none;top=0;left=0;bottom=0;right=0;pointerEvents=1;fontSize=16;" vertex="1" parent="w6EWbj3xSbZKIu15fxQG-115">
          <mxGeometry x="115" width="115" height="41" as="geometry">
            <mxRectangle width="115" height="41" as="alternateBounds" />
          </mxGeometry>
        </mxCell>
        <mxCell id="w6EWbj3xSbZKIu15fxQG-118" value="" style="shape=tableRow;horizontal=0;startSize=0;swimlaneHead=0;swimlaneBody=0;strokeColor=inherit;top=0;left=0;bottom=0;right=0;collapsible=0;dropTarget=0;fillColor=none;points=[[0,0.5],[1,0.5]];portConstraint=eastwest;fontSize=16;" vertex="1" parent="w6EWbj3xSbZKIu15fxQG-114">
          <mxGeometry y="41" width="230" height="41" as="geometry" />
        </mxCell>
        <mxCell id="w6EWbj3xSbZKIu15fxQG-119" value="" style="shape=partialRectangle;html=1;whiteSpace=wrap;connectable=0;strokeColor=inherit;overflow=hidden;fillColor=none;top=0;left=0;bottom=0;right=0;pointerEvents=1;fontSize=16;" vertex="1" parent="w6EWbj3xSbZKIu15fxQG-118">
          <mxGeometry width="115" height="41" as="geometry">
            <mxRectangle width="115" height="41" as="alternateBounds" />
          </mxGeometry>
        </mxCell>
        <mxCell id="w6EWbj3xSbZKIu15fxQG-120" value="" style="shape=partialRectangle;html=1;whiteSpace=wrap;connectable=0;strokeColor=inherit;overflow=hidden;fillColor=none;top=0;left=0;bottom=0;right=0;pointerEvents=1;fontSize=16;" vertex="1" parent="w6EWbj3xSbZKIu15fxQG-118">
          <mxGeometry x="115" width="115" height="41" as="geometry">
            <mxRectangle width="115" height="41" as="alternateBounds" />
          </mxGeometry>
        </mxCell>
        <mxCell id="w6EWbj3xSbZKIu15fxQG-121" value="" style="shape=tableRow;horizontal=0;startSize=0;swimlaneHead=0;swimlaneBody=0;strokeColor=inherit;top=0;left=0;bottom=0;right=0;collapsible=0;dropTarget=0;fillColor=none;points=[[0,0.5],[1,0.5]];portConstraint=eastwest;fontSize=16;" vertex="1" parent="w6EWbj3xSbZKIu15fxQG-114">
          <mxGeometry y="82" width="230" height="38" as="geometry" />
        </mxCell>
        <mxCell id="w6EWbj3xSbZKIu15fxQG-122" value="" style="shape=partialRectangle;html=1;whiteSpace=wrap;connectable=0;strokeColor=inherit;overflow=hidden;fillColor=none;top=0;left=0;bottom=0;right=0;pointerEvents=1;fontSize=16;" vertex="1" parent="w6EWbj3xSbZKIu15fxQG-121">
          <mxGeometry width="115" height="38" as="geometry">
            <mxRectangle width="115" height="38" as="alternateBounds" />
          </mxGeometry>
        </mxCell>
        <mxCell id="w6EWbj3xSbZKIu15fxQG-123" value="" style="shape=partialRectangle;html=1;whiteSpace=wrap;connectable=0;strokeColor=inherit;overflow=hidden;fillColor=none;top=0;left=0;bottom=0;right=0;pointerEvents=1;fontSize=16;" vertex="1" parent="w6EWbj3xSbZKIu15fxQG-121">
          <mxGeometry x="115" width="115" height="38" as="geometry">
            <mxRectangle width="115" height="38" as="alternateBounds" />
          </mxGeometry>
        </mxCell>
        <mxCell id="w6EWbj3xSbZKIu15fxQG-124" value="" style="shape=table;startSize=0;container=1;collapsible=0;childLayout=tableLayout;fontSize=16;" vertex="1" parent="1">
          <mxGeometry x="110" y="630" width="250" height="120" as="geometry" />
        </mxCell>
        <mxCell id="w6EWbj3xSbZKIu15fxQG-125" value="" style="shape=tableRow;horizontal=0;startSize=0;swimlaneHead=0;swimlaneBody=0;strokeColor=inherit;top=0;left=0;bottom=0;right=0;collapsible=0;dropTarget=0;fillColor=none;points=[[0,0.5],[1,0.5]];portConstraint=eastwest;fontSize=16;" vertex="1" parent="w6EWbj3xSbZKIu15fxQG-124">
          <mxGeometry width="250" height="41" as="geometry" />
        </mxCell>
        <mxCell id="w6EWbj3xSbZKIu15fxQG-126" value="" style="shape=partialRectangle;html=1;whiteSpace=wrap;connectable=0;strokeColor=inherit;overflow=hidden;fillColor=none;top=0;left=0;bottom=0;right=0;pointerEvents=1;fontSize=16;" vertex="1" parent="w6EWbj3xSbZKIu15fxQG-125">
          <mxGeometry width="125" height="41" as="geometry">
            <mxRectangle width="125" height="41" as="alternateBounds" />
          </mxGeometry>
        </mxCell>
        <mxCell id="w6EWbj3xSbZKIu15fxQG-127" value="" style="shape=partialRectangle;html=1;whiteSpace=wrap;connectable=0;strokeColor=inherit;overflow=hidden;fillColor=none;top=0;left=0;bottom=0;right=0;pointerEvents=1;fontSize=16;" vertex="1" parent="w6EWbj3xSbZKIu15fxQG-125">
          <mxGeometry x="125" width="125" height="41" as="geometry">
            <mxRectangle width="125" height="41" as="alternateBounds" />
          </mxGeometry>
        </mxCell>
        <mxCell id="w6EWbj3xSbZKIu15fxQG-128" value="" style="shape=tableRow;horizontal=0;startSize=0;swimlaneHead=0;swimlaneBody=0;strokeColor=inherit;top=0;left=0;bottom=0;right=0;collapsible=0;dropTarget=0;fillColor=none;points=[[0,0.5],[1,0.5]];portConstraint=eastwest;fontSize=16;" vertex="1" parent="w6EWbj3xSbZKIu15fxQG-124">
          <mxGeometry y="41" width="250" height="41" as="geometry" />
        </mxCell>
        <mxCell id="w6EWbj3xSbZKIu15fxQG-129" value="" style="shape=partialRectangle;html=1;whiteSpace=wrap;connectable=0;strokeColor=inherit;overflow=hidden;fillColor=none;top=0;left=0;bottom=0;right=0;pointerEvents=1;fontSize=16;" vertex="1" parent="w6EWbj3xSbZKIu15fxQG-128">
          <mxGeometry width="125" height="41" as="geometry">
            <mxRectangle width="125" height="41" as="alternateBounds" />
          </mxGeometry>
        </mxCell>
        <mxCell id="w6EWbj3xSbZKIu15fxQG-130" value="" style="shape=partialRectangle;html=1;whiteSpace=wrap;connectable=0;strokeColor=inherit;overflow=hidden;fillColor=none;top=0;left=0;bottom=0;right=0;pointerEvents=1;fontSize=16;" vertex="1" parent="w6EWbj3xSbZKIu15fxQG-128">
          <mxGeometry x="125" width="125" height="41" as="geometry">
            <mxRectangle width="125" height="41" as="alternateBounds" />
          </mxGeometry>
        </mxCell>
        <mxCell id="w6EWbj3xSbZKIu15fxQG-131" value="" style="shape=tableRow;horizontal=0;startSize=0;swimlaneHead=0;swimlaneBody=0;strokeColor=inherit;top=0;left=0;bottom=0;right=0;collapsible=0;dropTarget=0;fillColor=none;points=[[0,0.5],[1,0.5]];portConstraint=eastwest;fontSize=16;" vertex="1" parent="w6EWbj3xSbZKIu15fxQG-124">
          <mxGeometry y="82" width="250" height="38" as="geometry" />
        </mxCell>
        <mxCell id="w6EWbj3xSbZKIu15fxQG-132" value="" style="shape=partialRectangle;html=1;whiteSpace=wrap;connectable=0;strokeColor=inherit;overflow=hidden;fillColor=none;top=0;left=0;bottom=0;right=0;pointerEvents=1;fontSize=16;" vertex="1" parent="w6EWbj3xSbZKIu15fxQG-131">
          <mxGeometry width="125" height="38" as="geometry">
            <mxRectangle width="125" height="38" as="alternateBounds" />
          </mxGeometry>
        </mxCell>
        <mxCell id="w6EWbj3xSbZKIu15fxQG-133" value="" style="shape=partialRectangle;html=1;whiteSpace=wrap;connectable=0;strokeColor=inherit;overflow=hidden;fillColor=none;top=0;left=0;bottom=0;right=0;pointerEvents=1;fontSize=16;" vertex="1" parent="w6EWbj3xSbZKIu15fxQG-131">
          <mxGeometry x="125" width="125" height="38" as="geometry">
            <mxRectangle width="125" height="38" as="alternateBounds" />
          </mxGeometry>
        </mxCell>
        <mxCell id="w6EWbj3xSbZKIu15fxQG-135" value="" style="shape=rect;fillColor=#F6F6F6;strokeColor=none;" vertex="1" parent="1">
          <mxGeometry x="150" y="260" width="320" height="40" as="geometry" />
        </mxCell>
        <mxCell id="w6EWbj3xSbZKIu15fxQG-136" value="" style="html=1;strokeWidth=1;shadow=0;dashed=0;shape=mxgraph.ios7ui.marginRect;rx=3;ry=3;rectMargin=5;fillColor=#E4E4E4;strokeColor=none;" vertex="1" parent="w6EWbj3xSbZKIu15fxQG-135">
          <mxGeometry width="320" height="40" as="geometry" />
        </mxCell>
        <mxCell id="w6EWbj3xSbZKIu15fxQG-137" value="Search" style="shape=mxgraph.ios7.icons.looking_glass;strokeColor=#878789;fillColor=none;fontColor=#878789;labelPosition=right;verticalLabelPosition=middle;align=left;verticalAlign=middle;fontSize=6;fontStyle=0;spacingTop=2;sketch=0;html=1;" vertex="1" parent="w6EWbj3xSbZKIu15fxQG-135">
          <mxGeometry x="0.5" y="0.5" width="9.5" height="6" relative="1" as="geometry">
            <mxPoint x="-17" y="-3" as="offset" />
          </mxGeometry>
        </mxCell>
        <mxCell id="w6EWbj3xSbZKIu15fxQG-138" value="Magic Search" style="text;html=1;points=[];align=left;verticalAlign=top;spacingTop=-4;fontSize=14;fontFamily=Verdana" vertex="1" parent="1">
          <mxGeometry x="45" y="270" width="90" height="20" as="geometry" />
        </mxCell>
        <mxCell id="w6EWbj3xSbZKIu15fxQG-139" value="Guess" style="rounded=1;fillColor=#F1F2F4;strokeColor=none;html=1;whiteSpace=wrap;fontColor=#596780;align=left;fontSize=12;spacingLeft=10;sketch=0;" vertex="1" parent="1">
          <mxGeometry x="475" y="263.5" width="135" height="33" as="geometry" />
        </mxCell>
        <mxCell id="w6EWbj3xSbZKIu15fxQG-140" value="" style="shape=triangle;direction=south;fillColor=#596780;strokeColor=none;html=1;sketch=0;" vertex="1" parent="w6EWbj3xSbZKIu15fxQG-139">
          <mxGeometry x="1" y="0.5" width="12" height="6" relative="1" as="geometry">
            <mxPoint x="-20" y="-3" as="offset" />
          </mxGeometry>
        </mxCell>
        <mxCell id="w6EWbj3xSbZKIu15fxQG-143" value="Yes" style="rounded=1;fillColor=#F1F2F4;strokeColor=none;html=1;whiteSpace=wrap;fontColor=#596780;align=left;fontSize=12;spacingLeft=10;sketch=0;" vertex="1" parent="1">
          <mxGeometry x="730" y="263.5" width="67" height="33" as="geometry" />
        </mxCell>
        <mxCell id="w6EWbj3xSbZKIu15fxQG-144" value="" style="shape=triangle;direction=south;fillColor=#596780;strokeColor=none;html=1;sketch=0;" vertex="1" parent="w6EWbj3xSbZKIu15fxQG-143">
          <mxGeometry x="1" y="0.5" width="12" height="6" relative="1" as="geometry">
            <mxPoint x="-20" y="-3" as="offset" />
          </mxGeometry>
        </mxCell>
        <mxCell id="w6EWbj3xSbZKIu15fxQG-145" value="Percentage" style="html=1;shadow=0;dashed=0;shape=mxgraph.bootstrap.rangeInput;dx=0.6;strokeColor=#0085FC;fillColor=#DEE2E6;fontColor=#777777;whiteSpace=wrap;align=left;verticalAlign=bottom;fontStyle=0;fontSize=14;labelPosition=center;verticalLabelPosition=top;" vertex="1" parent="1">
          <mxGeometry x="830" y="280" width="225" height="20" as="geometry" />
        </mxCell>
        <mxCell id="w6EWbj3xSbZKIu15fxQG-146" value="Date" style="rounded=1;fillColor=#F1F2F4;strokeColor=none;html=1;whiteSpace=wrap;fontColor=#596780;align=left;fontSize=12;spacingLeft=10;sketch=0;" vertex="1" parent="1">
          <mxGeometry x="633" y="263.5" width="67" height="33" as="geometry" />
        </mxCell>
        <mxCell id="w6EWbj3xSbZKIu15fxQG-147" value="" style="shape=triangle;direction=south;fillColor=#596780;strokeColor=none;html=1;sketch=0;" vertex="1" parent="w6EWbj3xSbZKIu15fxQG-146">
          <mxGeometry x="1" y="0.5" width="12" height="6" relative="1" as="geometry">
            <mxPoint x="-20" y="-3" as="offset" />
          </mxGeometry>
        </mxCell>
        <mxCell id="w6EWbj3xSbZKIu15fxQG-148" value="&lt;font style=&quot;font-size: 11px;&quot;&gt;Remove?&lt;/font&gt;" style="html=1;shadow=0;dashed=0;shape=mxgraph.bootstrap.rrect;rSize=5;strokeColor=none;strokeWidth=1;fillColor=#ff0000;fontColor=#FFFFFF;whiteSpace=wrap;align=center;verticalAlign=middle;spacingLeft=0;fontStyle=0;fontSize=16;spacing=5;" vertex="1" parent="1">
          <mxGeometry x="850" y="435.31" width="90" height="29.37" as="geometry" />
        </mxCell>
        <mxCell id="w6EWbj3xSbZKIu15fxQG-149" value="&lt;font style=&quot;font-size: 11px;&quot;&gt;Remove?&lt;/font&gt;" style="html=1;shadow=0;dashed=0;shape=mxgraph.bootstrap.rrect;rSize=5;strokeColor=none;strokeWidth=1;fillColor=#ff0000;fontColor=#FFFFFF;whiteSpace=wrap;align=center;verticalAlign=middle;spacingLeft=0;fontStyle=0;fontSize=16;spacing=5;" vertex="1" parent="1">
          <mxGeometry x="850" y="480" width="90" height="29.37" as="geometry" />
        </mxCell>
        <mxCell id="w6EWbj3xSbZKIu15fxQG-150" value="&lt;font style=&quot;font-size: 11px;&quot;&gt;Remove?&lt;/font&gt;" style="html=1;shadow=0;dashed=0;shape=mxgraph.bootstrap.rrect;rSize=5;strokeColor=none;strokeWidth=1;fillColor=#ff0000;fontColor=#FFFFFF;whiteSpace=wrap;align=center;verticalAlign=middle;spacingLeft=0;fontStyle=0;fontSize=16;spacing=5;" vertex="1" parent="1">
          <mxGeometry x="850" y="520" width="90" height="29.37" as="geometry" />
        </mxCell>
        <mxCell id="w6EWbj3xSbZKIu15fxQG-151" value="&lt;font style=&quot;font-size: 11px;&quot;&gt;Remove?&lt;/font&gt;" style="html=1;shadow=0;dashed=0;shape=mxgraph.bootstrap.rrect;rSize=5;strokeColor=none;strokeWidth=1;fillColor=#ff0000;fontColor=#FFFFFF;whiteSpace=wrap;align=center;verticalAlign=middle;spacingLeft=0;fontStyle=0;fontSize=16;spacing=5;" vertex="1" parent="1">
          <mxGeometry x="850" y="555.32" width="90" height="29.37" as="geometry" />
        </mxCell>
        <mxCell id="w6EWbj3xSbZKIu15fxQG-152" value="&lt;font style=&quot;font-size: 11px;&quot;&gt;Remove?&lt;/font&gt;" style="html=1;shadow=0;dashed=0;shape=mxgraph.bootstrap.rrect;rSize=5;strokeColor=none;strokeWidth=1;fillColor=#ff0000;fontColor=#FFFFFF;whiteSpace=wrap;align=center;verticalAlign=middle;spacingLeft=0;fontStyle=0;fontSize=16;spacing=5;" vertex="1" parent="1">
          <mxGeometry x="850" y="600" width="90" height="29.37" as="geometry" />
        </mxCell>
        <mxCell id="w6EWbj3xSbZKIu15fxQG-153" value="&lt;font style=&quot;font-size: 11px;&quot;&gt;Remove?&lt;/font&gt;" style="html=1;shadow=0;dashed=0;shape=mxgraph.bootstrap.rrect;rSize=5;strokeColor=none;strokeWidth=1;fillColor=#ff0000;fontColor=#FFFFFF;whiteSpace=wrap;align=center;verticalAlign=middle;spacingLeft=0;fontStyle=0;fontSize=16;spacing=5;" vertex="1" parent="1">
          <mxGeometry x="850" y="640" width="90" height="29.37" as="geometry" />
        </mxCell>
        <mxCell id="w6EWbj3xSbZKIu15fxQG-154" value="&lt;font style=&quot;font-size: 11px;&quot;&gt;Remove?&lt;/font&gt;" style="html=1;shadow=0;dashed=0;shape=mxgraph.bootstrap.rrect;rSize=5;strokeColor=none;strokeWidth=1;fillColor=#ff0000;fontColor=#FFFFFF;whiteSpace=wrap;align=center;verticalAlign=middle;spacingLeft=0;fontStyle=0;fontSize=16;spacing=5;" vertex="1" parent="1">
          <mxGeometry x="850" y="675.3199999999999" width="90" height="29.37" as="geometry" />
        </mxCell>
        <mxCell id="w6EWbj3xSbZKIu15fxQG-155" value="&lt;font style=&quot;font-size: 11px;&quot;&gt;Remove?&lt;/font&gt;" style="html=1;shadow=0;dashed=0;shape=mxgraph.bootstrap.rrect;rSize=5;strokeColor=none;strokeWidth=1;fillColor=#ff0000;fontColor=#FFFFFF;whiteSpace=wrap;align=center;verticalAlign=middle;spacingLeft=0;fontStyle=0;fontSize=16;spacing=5;" vertex="1" parent="1">
          <mxGeometry x="850" y="720.6300000000001" width="90" height="29.37" as="geometry" />
        </mxCell>
      </root>
    </mxGraphModel>
  </diagram>
</mxfile>
